# xmcd CD database file
#
# Track frame offsets:
#	150
#	15531
#	27638
#	49261
#	61395
#	80238
#	90834
#	103073
#	116880
#	130986
#	149285
#	164708
#	177658
#	191785
#	209691
#	224514
#	237280
#	243918
#	257798
#	270640
#
# Disc length: 3875 seconds
#
# Revision: 0
# Processed by: cddbd v1.5.2PL0 Copyright (c) Steve Scherf et al.
# Submitted via: CDex 1.51
#
DISCID=3c0f2114
DTITLE=40 Cal. - Broken Safety
DYEAR=2006
DGENRE=Hip Hop
TTITLE0=Broken Safety
TTITLE1=Worried feat. Sudaboss
TTITLE2=Pyrexx Vision/Angel Dust
TTITLE3=We Got The Crack
TTITLE4=Runnin' This Rap Shit feat. J.R. Writer
TTITLE5=Real Bitch feat. Freaky Zekey
TTITLE6=Survivor feat. Akon
TTITLE7=Weed Song
TTITLE8=T.V. Show
TTITLE9=Go Get Ya Guns feat. Rod Man
TTITLE10=Quiet Sounds
TTITLE11=You Know Who It Is feat. Bezel
TTITLE12=Fuck It All
TTITLE13=Click Clack feat. A-Mafia
TTITLE14=Think I'm Not Gangsta
TTITLE15=Sounds Like
TTITLE16=Be Easy
TTITLE17=It's 40
TTITLE18=Sam Scared
TTITLE19=Dear Fan feat. Young Ace
EXTD=YEAR: 2006
EXTT0=
EXTT1=
EXTT2=
EXTT3=
EXTT4=
EXTT5=
EXTT6=
EXTT7=
EXTT8=
EXTT9=
EXTT10=
EXTT11=
EXTT12=
EXTT13=
EXTT14=
EXTT15=
EXTT16=
EXTT17=
EXTT18=
EXTT19=
PLAYORDER=
